<svg width="512" height="512" viewBox="0 0 512 512" xmlns="http://www.w3.org/2000/svg">
    <rect width="512" height="512" rx="96" fill="#1D2730"/>
    <ellipse cx="256" cy="414" rx="160" ry="24" fill="#0C1116" opacity="0.45"/>

    <g transform="translate(8 8)" fill="#111820">
        <path d="M90 370V140H130L180 230L230 140H270V370H230V215L180 305L130 215V370Z"/>
        <path d="M285 185C285 145 315 120 360 120C405 120 435 148 435 188C435 220 415 245 375 275L325 310H435V370H280V325L360 265C380 250 395 235 395 205C395 180 380 165 358 165C335 165 325 178 325 198H285Z"/>
    </g>

    <g fill="#D5E2EB">
        <path d="M90 370V140H130L180 230L230 140H270V370H230V215L180 305L130 215V370Z"/>
        <path d="M285 185C285 145 315 120 360 120C405 120 435 148 435 188C435 220 415 245 375 275L325 310H435V370H280V325L360 265C380 250 395 235 395 205C395 180 380 165 358 165C335 165 325 178 325 198H285Z"/>
    </g>

    <g fill="#111820">
        <rect x="432" y="329" width="30" height="126" rx="6"/>
        <rect x="384" y="377" width="126" height="30" rx="6"/>
    </g>

    <g fill="#53A6E8">
        <rect x="424" y="321" width="30" height="126" rx="6"/>
        <rect x="376" y="369" width="126" height="30" rx="6"/>
    </g>
</svg>